<?xml version="1.0" encoding="UTF-8" standalone="no"?>
<!-- Created with Inkscape (http://www.inkscape.org/) -->

<svg
   xmlns:osb="http://www.openswatchbook.org/uri/2009/osb"
   xmlns:dc="http://purl.org/dc/elements/1.1/"
   xmlns:cc="http://creativecommons.org/ns#"
   xmlns:rdf="http://www.w3.org/1999/02/22-rdf-syntax-ns#"
   xmlns:svg="http://www.w3.org/2000/svg"
   xmlns="http://www.w3.org/2000/svg"
   xmlns:xlink="http://www.w3.org/1999/xlink"
   xmlns:sodipodi="http://sodipodi.sourceforge.net/DTD/sodipodi-0.dtd"
   xmlns:inkscape="http://www.inkscape.org/namespaces/inkscape"
   version="1.1"
   id="svg64"
   width="340"
   height="228"
   viewBox="0 0 340 228"
   sodipodi:docname="Indian Election Symbol Two Leaves.svg"
   inkscape:version="0.92.1 r15371">
  <metadata
     id="metadata70">
    <rdf:RDF>
      <cc:Work
         rdf:about="">
        <dc:format>image/svg+xml</dc:format>
        <dc:type
           rdf:resource="http://purl.org/dc/dcmitype/StillImage" />
        <dc:title></dc:title>
      </cc:Work>
    </rdf:RDF>
  </metadata>
  <defs
     id="defs68">
    <linearGradient
       id="linearGradient4585"
       osb:paint="solid">
      <stop
         style="stop-color:#000000;stop-opacity:1;"
         offset="0"
         id="stop4583" />
    </linearGradient>
    <linearGradient
       inkscape:collect="always"
       xlink:href="#linearGradient4585"
       id="linearGradient4587"
       x1="-52.630698"
       y1="93.468392"
       x2="217.85222"
       y2="93.468392"
       gradientUnits="userSpaceOnUse" />
  </defs>
  <sodipodi:namedview
     pagecolor="#ffffff"
     bordercolor="#666666"
     borderopacity="1"
     objecttolerance="10"
     gridtolerance="10"
     guidetolerance="10"
     inkscape:pageopacity="0"
     inkscape:pageshadow="2"
     inkscape:window-width="1366"
     inkscape:window-height="736"
     id="namedview66"
     showgrid="false"
     inkscape:zoom="0.70710678"
     inkscape:cx="242.59814"
     inkscape:cy="145.43838"
     inkscape:window-x="0"
     inkscape:window-y="16"
     inkscape:window-maximized="1"
     inkscape:current-layer="svg64" />
  <g
     id="g82"
     transform="matrix(1.1909154,0,0,1.1725523,72.667448,6.296593)">
    <path
       style="fill:#0b9421;stroke:url(#linearGradient4587);stroke-width:2;stroke-miterlimit:1;stroke-dasharray:none"
       d="m 60.894809,177.3955 c -2.97321,-5.00347 -2.98261,-5.16777 -0.77346,-13.52131 5.00445,-18.92352 3.8751,-50.32616 -2.00116,-55.64411 -2.02359,-1.83131 -7.105947,-2.97684 -23.80939,-4.0132 C 9.608549,102.68423 6.1960186,100.62001 -5.7876414,91.406523 -25.183661,76.494136 -34.497451,56.959483 -43.217611,23.108857 c -0.92873,-3.60523 -3.44627,-8.556853 -5.59454,-11.003593 -2.4193,-2.7554301 -5.16267,-5.3461051 -3.08222,-6.5951901 4.63478,-2.782679 24.6181,2.358213 28.2168,2.69786 29.5282596,2.5705401 38.0122,5.1222501 54.57204,16.4136431 10.18916,6.94752 16.93396,14.92989 23.42617,27.72456 6.01351,13.390366 6.17176,19.315666 6.59773,31.816296 0.57856,16.978917 1.10566,20.856127 3.33334,24.519417 4.92548,8.09968 6.33806,5.49772 9.4622,-17.429117 2.74978,-20.17972 1.709817,-25.442232 4.848158,-23.827482 1.231302,0.63354 -0.691908,17.575432 -3.022388,35.789229 -5.18479,40.5217 -5.12341,39.59154 -2.64188,40.03799 3.03139,0.54536 8.98001,-8.29333 11.264682,-16.73748 8.53809,-31.556847 8.84735,-35.338007 19.938999,-49.077367 13.50445,-16.72812 33.01086,-29.194306 53.29089,-36.330166 17.03128,-5.30931 32.20436,0.5529 48.96034,-3.75161 3.50435,-0.99548 11.01664,-1.66489 11.49951,-1.18201 -2.01025,8.72168 -8.10618,13.88988 -10.86649,27.740006 -1.62142,7.87666 -7.30113,23.42947 -13.9558,33.54982 -9.86522,15.002907 -18.67761,29.065417 -37.46546,38.704377 -17.99622,9.23281 -27.8497,10.80325 -53.70424,8.55931 l -18.370899,-1.59443 -3.198802,3.26545 c -6.31618,6.44782 -10.51248,16.06683 -11.3074,25.91954 -0.91262,11.31169 -3.44076,12.89877 -8.08832,5.07761 z"
       id="path94"
       inkscape:connector-curvature="0"
       sodipodi:nodetypes="cscssssscsccsccscsaccccassccssc" />
    <path
       style="fill:#000000;stroke-width:1.33333337"
       d="m -51.571219,5.314565 -0.46875,1.914063 c 0,0 14.530855,11.366249 21.34961,16.260742 14.790484,10.616589 -4.871437,1.769378 -5.058321,3.88773 0,0 11.626237,2.594544 17.92265,6.362604 8.5648013,5.125567 26.784921,20.590486 21.741141,20.590486 -10.70486,-0.1048 -21.48427,-3.594301 -30.81641,-8.644531 -2.88926,3.39101 27.63824,11.506712 31.6875,10.632812 6.62912,0.59623 8.240917,2.439294 14.364167,7.339844 3.63891,2.912289 7.047263,6.544205 7.059663,7.203125 -13.199143,3.724431 -48.050401,-7.135037 -43.679723,-4.093863 9.5465496,2.01432 15.583713,5.409564 24.828163,6.588004 9.24447,1.17845 16.74565,-0.565562 24.98047,2.480468 7.87366,7.016434 6.22868,9.160157 -2.96094,9.160157 -2.54996,0 -37.539,-3.704105 -37.13281,-3.046875 0.40619,0.65722 31.95699,5.249181 36.62304,5.019531 6.18723,0.744574 10.13942,-1.492149 14.49414,0.466797 2.6569,2.587788 9.0722,8.354662 8.98242,12.044922 -6.8233,3.042659 -35.91277,3.312979 -18.0332,4.736329 16.68328,1.32182 21.78501,2.18041 23.8086,4.01172 5.87626,5.31795 7.0064,36.72107 2.00195,55.64453 -2.20915,8.35356 -2.19977,8.51801 0.77344,13.52148 4.64756,7.82116 7.17536,6.23357 8.08789,-5.07812 0.79494,-9.85271 7.36741,-21.2221 13.68359,-27.66992 5.844074,-5.33545 11.08466,-14.06368 18.839839,-14.06055 1.65242,0.0233 49.33382,-2.99339 48.93153,-4.55989 -0.49668,-1.93406 -48.62671,2.92935 -48.78895,2.51887 -0.18536,-0.46897 6.47915,-7.02485 7.80219,-7.45737 13.0693,-4.27255 46.78146,-2.17754 60.20545,-7.30483 -8.55048,0.5429 -61.34545,5.50069 -50.9412,-0.60889 8.17631,-6.27122 5.77207,-7.8793 17.19056,-7.37929 12.20091,1.41309 40.54269,-3.57554 42.70932,-6.614684 -4.95527,0.263401 -53.41013,10.569114 -42.73192,1.042844 4.41994,-4.050562 8.39795,-7.841468 15.22538,-9.692435 4.22745,-0.0515 31.07231,-2.252199 33.06931,-4.183896 -13.91954,1.402592 -42.66493,6.914453 -24.32652,-4.874973 15.74164,-9.557061 10.29495,0.448523 35.24509,-10.286302 -6.8344,2.008942 -18.55115,6.171333 -22.85975,3.152834 23.73434,-22.436339 40.32904,-30.610852 45.61483,-38.164201 -12.48596,7.408483 -27.81494,20.06062 -41.33212,29.891276 -0.50641,0.368379 5.35395,-17.118551 6.44434,-18.696473 -1.9148,0.543398 -6.44434,18.696473 -9.44747,20.896134 -6.73286,5.964026 -11.87473,9.541566 -19.66825,13.649436 -4.02728,1.095573 4.68427,-25.687228 7.15294,-30.729068 -1.70572,-3.916389 -12.04233,33.721746 -12.48692,34.565006 -2.47947,4.70285 -12.62716,11.527867 -15.69336,10.554687 -0.99062,-0.31441 5.62364,-35.380541 12.10425,-40.552943 -8.46489,4.860679 -14.6941,41.399532 -14.6941,42.433807 0,3.092131 -5.64556,7.236821 -11.60546,11.716801 -10.77909,8.10251 5.77131,-38.50285 4.72865,-40.18989 -0.95236,-1.54095 -11.95096,39.5403 -13.131,42.66254 -1.77059,4.68474 -7.76254,11.28711 -10.242189,11.28711 -0.9628,0 -1.75,-1.31022 -1.75,-2.91211 -0.716259,-7.27754 10.566959,-33.03326 8.031869,-34.49635 -0.53864,2.57524 -8.000609,23.71681 -8.975229,27.69953 -2.42276,9.90043 -4.2571,14.54615 -6.71093,17 -9.258209,9.01064 -3.174394,-10.82879 -8.035615,-0.83279 -3.61503,7.52366 -7.879255,13.99279 -10.413605,13.02026 -1.50464,-0.57739 -1.89036,-1.86024 -1.34766,-4.47657 0.91582,-4.41508 3.14723,-21.57416 5.0625,-37.71679 1.91527,-16.14263 3.51441,-31.268793 3.16406,-31.619143 l -2.16796,-2.023438 -3.03711,19.173829 c -3.12414,22.926832 -4.62335,30.302802 -9.54883,22.203122 -2.22768,-3.66329 -2.75543,-7.54061 -3.33399,-24.519529 -1.34778,-15.458509 -2.87193,10.635125 -3.47851,11.083985 -0.8021,0.27503 -5.41974,-4.628756 -9.61236,-9.601676 C 45.731841,83.1581 44.298516,54.991499 40.201388,43.081422 36.10426,31.171345 52.344791,99.480581 33.032027,70.126687 32.594216,69.461248 26.303299,34.733148 23.705451,32.33676 22.671579,31.383064 31.702042,67.863857 27.064562,65.699782 23.551458,64.060396 25.958766,63.908663 21.635546,61.190223 5.9152876,51.305326 1.1531595,21.42602 -1.2061845,19.563345 -3.5655279,17.70067 10.358393,51.844051 4.5479617,47.59123 -0.69592773,43.779264 -14.054844,33.783029 -18.782231,30.055666 c -3.025597,-4.541518 -0.513522,-7.204491 -5.096749,-15.412142 -2.181705,-3.907001 7.550189,18.775514 -2.701819,9.279633 C -28.765,22.311119 -51.571219,5.314565 -51.571219,5.314565 Z m 112.2207,70.945313 c -0.25992,0.002 -0.48939,0.0038 -0.86719,0.0078 0.15853,0.003 0.53508,0.01088 0.86719,0.01758 z m 3.29688,38.453122 c 0.27058,-8.6e-4 0.70831,0.29669 1.36133,0.95508 3.83057,3.58461 4.85649,21.13037 1.30859,13.05273 -0.71847,-7.31656 -4.13106,-14.00314 -2.66992,-14.00781 z m 18.492722,20.91526 c 2.203934,2.66618 -10.257677,12.60431 -12.12891,15.51367 -2.589583,4.02623 -4.79699,12.57333 -4.79699,12.57333 -2.41788,0.3966 -0.390732,-3.91146 0.124578,-7.63702 0.51532,-3.72558 2.986462,-6.16912 4.11133,-7.11914 6.667497,-5.63111 8.584995,-7.13723 12.689992,-13.33084 z"
       id="path88"
       inkscape:connector-curvature="0"
       sodipodi:nodetypes="ccssscccsccscscccccccscccscscccccccccccccccccccssccsccsccscscccsccczsssssccsccccccccsccccssc" />
  </g>
</svg>
